<svg xmlns="http://www.w3.org/2000/svg"
     viewBox="0 0 24 24"
     role="img"
     aria-label="OptiCV AI – Clean Icon">
  <title>OptiCV AI • Single Star Icon</title>

  <style>
    :root{
      --c1:#34d399;
      --c2:#10b981;
      --stroke:#ffffff;
      --halo:0.18;
      --pulse:3s;
    }
    /* Đã bỏ @keyframes pulse và không dùng animation */
  </style>

  <defs>
    <linearGradient id="grad" x1="0" y1="0" x2="0" y2="1">
      <stop offset="0"  stop-color="var(--c1)"/>
      <stop offset="1"  stop-color="var(--c2)"/>
    </linearGradient>

    <filter id="glow" x="-30%" y="-30%" width="160%" height="160%">
      <feGaussianBlur in="SourceAlpha" stdDeviation="1.2" result="b"/>
      <feFlood flood-color="#fff" flood-opacity="var(--halo)"/>
      <feComposite in2="b" operator="in"/>
      <feMerge><feMergeNode/><feMergeNode in="SourceGraphic"/></feMerge>
    </filter>

    <clipPath id="ring"><circle cx="12" cy="12" r="11.9"/></clipPath>
  </defs>

  <circle cx="12" cy="12" r="12" fill="url(#grad)" filter="url(#glow)"/>

  <circle cx="12" cy="12" r="11.4" fill="none"
          stroke="var(--stroke)" stroke-opacity=".15" stroke-width=".5"/>
  <circle cx="12" cy="12" r="10.9" fill="none"
          stroke="var(--stroke)" stroke-opacity=".08" stroke-width=".3"/>

  <g clip-path="url(#ring)"
     fill="none"
     stroke="var(--stroke)"
     stroke-linecap="round"
     stroke-linejoin="round"
     stroke-width="1.4">

    <!-- Single large centered star -->
    <path d="M12 4.5l1.2 3.8c.3 1 1.2 1.9 2.2 2.2L19.2 12l-3.8 1.2c-1 .3-1.9 1.2-2.2 2.2L12 19.5l-1.2-3.8c-.3-1-1.2-1.9-2.2-2.2L4.8 12l3.8-1.2c1-.3 1.9-1.2 2.2-2.2L12 4.5z"
          fill="white"/>
  </g>
</svg>
