<svg xmlns="http://www.w3.org/2000/svg" viewBox="0 0 24 24">
  <defs>
    <linearGradient id="emeraldGradient" x1="0%" y1="0%" x2="0%" y2="100%">
      <stop offset="0%" stop-color="#34d399"/>
      <stop offset="100%" stop-color="#10b981"/>
    </linearGradient>
    <filter id="subtleShadow" x="-20%" y="-20%" width="140%" height="140%">
      <feDropShadow dx="0" dy="1" stdDeviation="0.5" flood-opacity="0.1"/>
    </filter>
    <clipPath id="circleClip">
      <circle cx="12" cy="12" r="11.8"/>
    </clipPath>
  </defs>
  
  <circle cx="12" cy="12" r="12" fill="url(#emeraldGradient)" filter="url(#subtleShadow)"/>
  <circle cx="12" cy="12" r="11.4" fill="none" stroke="rgba(255,255,255,0.2)" stroke-width="0.6"/>
  <circle cx="12" cy="12" r="10.8" fill="none" stroke="rgba(255,255,255,0.1)" stroke-width="0.4"/>
  
  <g fill="none" stroke="#ffffff" stroke-width="1.4" stroke-linecap="round" stroke-linejoin="round" clip-path="url(#circleClip)">
    <path d="M9.5 15.5 8.8 18l-.7-2.5a4 4 0 0 0-2.8-2.8L2.8 12l2.5-.7a4 4 0 0 0 2.8-2.8L8.8 6l.7 2.5a4 4 0 0 0 2.8 2.8L14.8 12l-2.5.7a4 4 0 0 0-2.8 2.8Z"/>
    <path d="M17.8 8.2 17.6 9l-.2-.8a2.8 2.8 0 0 0-2-2L14.6 6l.8-.2a2.8 2.8 0 0 0 2-2L17.6 3l.2.8a2.8 2.8 0 0 0 2 2l.8.2-.8.2a2.8 2.8 0 0 0-2 2Z" opacity="0.8"/>
    <path d="M16.2 19.8 16 20.5l-.2-.7a1.8 1.8 0 0 0-1.2-1.2L14 18.5l.6-.1a1.8 1.8 0 0 0 1.2-1.2l.2-.7.2.7a1.8 1.8 0 0 0 1.2 1.2l.6.1-.6.1a1.8 1.8 0 0 0-1.2 1.2Z" opacity="0.6"/>
  </g>
</svg>
